<svg width="64" height="64" viewBox="0 0 64 64" fill="none" xmlns="http://www.w3.org/2000/svg">
<g id="home-4-fill">
<g id="Group">
<path id="Vector" d="M33.5813 62.0213L33.552 62.0267L33.3627 62.12L33.3093 62.1307L33.272 62.12L33.0827 62.0267C33.0542 62.0178 33.0329 62.0222 33.0187 62.04L33.008 62.0667L32.9627 63.208L32.976 63.2613L33.0027 63.296L33.28 63.4933L33.32 63.504L33.352 63.4933L33.6293 63.296L33.6613 63.2533L33.672 63.208L33.6267 62.0693C33.6196 62.0409 33.6044 62.0249 33.5813 62.0213ZM34.288 61.72L34.2533 61.7253L33.76 61.9733L33.7333 62L33.7253 62.0293L33.7733 63.176L33.7867 63.208L33.808 63.2267L34.344 63.4747C34.3778 63.4836 34.4036 63.4765 34.4213 63.4533L34.432 63.416L34.3413 61.7787C34.3324 61.7467 34.3147 61.7271 34.288 61.72ZM32.3813 61.7253C32.3696 61.7182 32.3555 61.7159 32.3421 61.7189C32.3287 61.7219 32.317 61.7299 32.3093 61.7413L32.2933 61.7787L32.2027 63.416C32.2044 63.448 32.2196 63.4693 32.248 63.48L32.288 63.4747L32.824 63.2267L32.8507 63.2053L32.8613 63.176L32.9067 62.0293L32.8987 61.9973L32.872 61.9707L32.3813 61.7253Z" fill="#9093C0"/>
<path id="Vector_2" d="M35.2 7.06667C34.2768 6.37428 33.154 6 32 6C30.846 6 29.7232 6.37428 28.8 7.06667L10.1333 21.0667C9.47095 21.5635 8.93334 22.2076 8.56306 22.9482C8.19277 23.6888 8 24.5054 8 25.3333V50.6667C8 52.0812 8.5619 53.4377 9.5621 54.4379C10.5623 55.4381 11.9188 56 13.3333 56H23.7333C24.5113 56 25.2574 55.691 25.8075 55.1409C26.3576 54.5907 26.6667 53.8446 26.6667 53.0667V40C26.6667 38.5855 27.2286 37.229 28.2288 36.2288C29.229 35.2286 30.5855 34.6667 32 34.6667C33.4145 34.6667 34.771 35.2286 35.7712 36.2288C36.7714 37.229 37.3333 38.5855 37.3333 40V53.0667C37.3333 53.8446 37.6424 54.5907 38.1925 55.1409C38.7426 55.691 39.4887 56 40.2667 56H50.6667C52.0812 56 53.4377 55.4381 54.4379 54.4379C55.4381 53.4377 56 52.0812 56 50.6667V25.3333C56 24.5054 55.8072 23.6888 55.4369 22.9482C55.0667 22.2076 54.529 21.5635 53.8667 21.0667L35.2 7.06667Z" fill="#9093C0"/>
</g>
</g>
</svg>
