<svg width="64" height="64" viewBox="0 0 64 64" fill="none" xmlns="http://www.w3.org/2000/svg">
<g id="rows-3-fill">
<g id="Group">
<path id="Vector" fill-rule="evenodd" clip-rule="evenodd" d="M13.3333 8C11.9188 8 10.5623 8.5619 9.5621 9.5621C8.5619 10.5623 8 11.9188 8 13.3333V24C8 25.4145 8.5619 26.771 9.5621 27.7712C10.5623 28.7714 11.9188 29.3333 13.3333 29.3333H50.6667C52.0812 29.3333 53.4377 28.7714 54.4379 27.7712C55.4381 26.771 56 25.4145 56 24V13.3333C56 11.9188 55.4381 10.5623 54.4379 9.5621C53.4377 8.5619 52.0812 8 50.6667 8H13.3333ZM13.3333 34.6667C11.9188 34.6667 10.5623 35.2286 9.5621 36.2288C8.5619 37.229 8 38.5855 8 40V50.6667C8 52.0812 8.5619 53.4377 9.5621 54.4379C10.5623 55.4381 11.9188 56 13.3333 56H50.6667C52.0812 56 53.4377 55.4381 54.4379 54.4379C55.4381 53.4377 56 52.0812 56 50.6667V40C56 38.5855 55.4381 37.229 54.4379 36.2288C53.4377 35.2286 52.0812 34.6667 50.6667 34.6667H13.3333Z" fill="#9093C0"/>
</g>
</g>
</svg>
